<?xml version="1.0" encoding="utf-8"?>
<!-- Generator: Adobe Illustrator 26.2.1, SVG Export Plug-In . SVG Version: 6.00 Build 0)  -->
<svg version="1.1" id="Livello_1" xmlns="http://www.w3.org/2000/svg" xmlns:xlink="http://www.w3.org/1999/xlink" x="0px" y="0px"
	 viewBox="0 0 640 640" style="enable-background:new 0 0 640 640;" xml:space="preserve">
<style type="text/css">
	.st0{fill:#FAFAFA;}
	.st1{fill-rule:evenodd;clip-rule:evenodd;fill:#9C9C9C;}
	.st2{fill:#FFFFFF;}
</style>
<rect class="st0" width="640" height="640"/>
<g>
	<path class="st1" d="M383,340H257c-4.8,0-8.7-3.5-8.7-7.9v-24.3c0-4.4,3.9-7.9,8.7-7.9H383c4.8,0,8.7,3.5,8.7,7.9v24.2
		C391.8,336.5,387.8,340,383,340z"/>
	<g>
		<path class="st2" d="M262.7,315.8h3.2l0.1,2.1h0.1c0.6-1.7,1.9-2.2,3.5-2.2h0.7v3.3h-0.8c-2.3,0-3.3,1.1-3.4,3v6.7h-3.5V315.8
			L262.7,315.8z"/>
		<path class="st2" d="M271.2,322.3c0-4.1,2.5-6.7,6.2-6.7c4.4,0,6.5,3.2,6.1,7.4h-8.8c0,2,1.1,3.2,2.9,3.2c1.3,0,2.3-0.7,2.6-1.6
			h3.3c-0.4,2.6-2.7,4.3-5.9,4.3C273.6,328.8,271.2,326.2,271.2,322.3z M274.7,320.7h5.4c-0.1-1.7-1.2-2.5-2.6-2.5
			C275.8,318.2,274.8,319.2,274.7,320.7z"/>
		<path class="st2" d="M285.1,324.5h3.4c0,1.4,1.1,1.9,2.5,1.9c1.4,0,2.2-0.5,2.2-1.4c0-1.2-0.8-1.3-2.6-1.6
			c-2.8-0.4-5.1-1.1-5.1-3.9c0-2.7,2.2-4,5.5-4c3.3,0,5.3,1.5,5.4,4h-3.4c0-1.1-0.8-1.7-2.1-1.7c-1.3,0-2,0.5-2,1.3
			c0,1,0.8,1.2,2.7,1.5c2.6,0.4,5,0.9,5,4c0,2.8-2.2,4.1-5.8,4.1C287.2,328.8,285.1,327.1,285.1,324.5z"/>
		<path class="st2" d="M299.9,325.5v-6.9h-2.3v-2.8h2.3v-3.5l3.5-0.4v3.8h2.5v2.8h-2.5v6.2c0,0.7,0.4,1,1,1h1.5v2.9h-2.8
			C300.6,328.6,299.9,327.4,299.9,325.5z"/>
		<path class="st2" d="M308.1,311.2h3.5v6.9h0.1c0.7-1.7,2.2-2.5,4-2.5c2.5,0,4.5,1.5,4.5,5.3v7.7h-3.5v-7c0-2.2-0.7-3.2-2.4-3.2
			c-1.8,0-2.8,1.5-2.8,3v7.1h-3.5L308.1,311.2L308.1,311.2z"/>
		<path class="st2" d="M322.4,322.2c0-4,2.3-6.6,6.4-6.6c3.8,0,6.4,2.5,6.4,6.6c0,4-2.3,6.6-6.4,6.6
			C324.9,328.8,322.4,326.3,322.4,322.2z M331.6,322.2c0-2.5-1.1-3.8-2.8-3.8c-1.7,0-2.9,1.2-2.9,3.8c0,2.5,1.1,3.8,2.9,3.8
			C330.5,325.9,331.6,324.7,331.6,322.2z"/>
		<path class="st2" d="M338.3,325.5v-6.9H336v-2.8h2.3v-3.5l3.5-0.4v3.8h2.5v2.8h-2.5v6.2c0,0.7,0.4,1,1,1h1.5v2.9h-2.8
			C339,328.6,338.3,327.4,338.3,325.5z"/>
		<path class="st2" d="M345.4,322.3c0-4.1,2.5-6.7,6.2-6.7c4.4,0,6.5,3.2,6.1,7.4h-8.8c0,2,1.1,3.2,2.9,3.2c1.3,0,2.3-0.7,2.6-1.6
			h3.3c-0.4,2.6-2.7,4.3-5.9,4.3C347.8,328.8,345.4,326.2,345.4,322.3z M348.9,320.7h5.4c-0.1-1.7-1.2-2.5-2.6-2.5
			C350,318.2,349,319.2,348.9,320.7z"/>
		<path class="st2" d="M360,311.2h3.5v17.4H360V311.2z"/>
		<path class="st2" d="M365.8,324.5h3.4c0,1.4,1.1,1.9,2.5,1.9c1.4,0,2.2-0.5,2.2-1.4c0-1.2-0.8-1.3-2.6-1.6
			c-2.8-0.4-5.1-1.1-5.1-3.9c0-2.7,2.2-4,5.5-4c3.3,0,5.3,1.5,5.4,4h-3.4c0-1.1-0.8-1.7-2.1-1.7c-1.3,0-2,0.5-2,1.3
			c0,1,0.8,1.2,2.7,1.5c2.6,0.4,5,0.9,5,4c0,2.8-2.2,4.1-5.8,4.1C367.8,328.8,365.8,327.1,365.8,324.5z"/>
	</g>
</g>
</svg>
