<?xml version="1.0" encoding="utf-8"?>
<!-- Generator: Adobe Illustrator 26.2.1, SVG Export Plug-In . SVG Version: 6.00 Build 0)  -->
<svg version="1.1" id="Livello_1" xmlns="http://www.w3.org/2000/svg" xmlns:xlink="http://www.w3.org/1999/xlink" x="0px" y="0px"
	 viewBox="0 0 340 111" style="enable-background:new 0 0 340 111;" xml:space="preserve">
<style type="text/css">
	.st0{fill-rule:evenodd;clip-rule:evenodd;fill:#FFDC2C;}
	.st1{fill:#1D1D1B;}
</style>
<g>
	<path class="st0" d="M313.28,101H26.72c-10.91,0-19.81-8.05-19.81-17.91V27.91c0-9.86,8.9-17.91,19.81-17.91h286.55
		c11.01,0,19.81,8.05,19.81,17.91V83C333.19,92.95,324.28,101,313.28,101z"/>
	<g>
		<path class="st1" d="M39.67,45.92h7.18l0.32,4.67h0.27c1.29-3.75,4.32-5.05,7.99-5.05h1.62v7.49h-1.78
			c-5.34,0-7.55,2.44-7.66,6.79v15.2h-7.93V45.92z"/>
		<path class="st1" d="M58.94,60.68c0-9.39,5.56-15.31,14.14-15.31c10.04,0,14.79,7.22,13.82,16.88H66.76
			c-0.05,4.61,2.59,7.22,6.58,7.22c3.02,0,5.29-1.47,5.88-3.69h7.5c-0.76,5.86-6.1,9.72-13.38,9.72
			C64.28,75.5,58.94,69.59,58.94,60.68z M66.82,57.16h12.3c-0.22-3.86-2.75-5.76-6.04-5.76C69.46,51.4,67.14,53.63,66.82,57.16z"/>
		<path class="st1" d="M90.56,65.84h7.77c0.05,3.09,2.43,4.34,5.56,4.34c3.24,0,4.91-1.19,4.91-3.15c0-2.66-1.83-3.04-5.94-3.64
			c-6.42-0.87-11.55-2.39-11.55-8.79c0-6.13,5.07-9.23,12.63-9.23c7.39,0,12.09,3.42,12.25,9.17h-7.77c0-2.44-1.83-3.8-4.69-3.8
			c-2.97,0-4.48,1.25-4.48,3.04c0,2.17,1.83,2.82,6.1,3.37c5.99,0.81,11.44,2.01,11.44,9.12c0,6.41-4.96,9.28-13.11,9.28
			C95.26,75.56,90.51,71.65,90.56,65.84z"/>
		<path class="st1" d="M124.29,67.9V52.33h-5.18v-6.41h5.18v-7.93l7.88-0.76v8.69H138v6.41h-5.83v14.06c0,1.74,0.81,2.17,2.32,2.17
			H138v6.46h-6.31C125.8,75.01,124.29,72.3,124.29,67.9z"/>
		<path class="st1" d="M142.91,35.44h7.93v15.74h0.32c1.56-3.85,5.13-5.81,9.23-5.81c5.77,0,10.2,3.31,10.2,12.05v17.59h-7.93V59.16
			c0-4.89-1.62-7.27-5.45-7.27c-4.1,0-6.37,3.26-6.37,6.95v16.18h-7.93V35.44z"/>
		<path class="st1" d="M175.4,60.47c0-9.01,5.34-15.09,14.52-15.09c8.63,0,14.46,5.64,14.46,15.09c0,9.01-5.34,15.04-14.46,15.04
			C181.22,75.5,175.4,69.91,175.4,60.47z M196.33,60.47c0-5.75-2.48-8.58-6.42-8.58c-3.94,0-6.53,2.77-6.53,8.58
			c0,5.76,2.54,8.58,6.48,8.58C193.75,69.04,196.33,66.27,196.33,60.47z"/>
		<path class="st1" d="M211.61,67.9V52.33h-5.18v-6.41h5.18v-7.93l7.88-0.76v8.69h5.83v6.41h-5.83v14.06c0,1.74,0.81,2.17,2.32,2.17
			h3.51v6.46H219C213.12,75.01,211.61,72.3,211.61,67.9z"/>
		<path class="st1" d="M227.75,60.68c0-9.39,5.56-15.31,14.14-15.31c10.04,0,14.79,7.22,13.82,16.88h-20.13
			c-0.05,4.61,2.59,7.22,6.58,7.22c3.02,0,5.29-1.47,5.88-3.69h7.5c-0.76,5.86-6.1,9.72-13.38,9.72
			C233.09,75.5,227.75,69.59,227.75,60.68z M235.62,57.16h12.3c-0.22-3.86-2.75-5.76-6.04-5.76
			C238.27,51.4,235.95,53.63,235.62,57.16z"/>
		<path class="st1" d="M260.88,35.44h7.93v39.57h-7.93V35.44z"/>
		<path class="st1" d="M274.1,65.84h7.77c0.05,3.09,2.43,4.34,5.56,4.34c3.24,0,4.91-1.19,4.91-3.15c0-2.66-1.84-3.04-5.94-3.64
			c-6.42-0.87-11.55-2.39-11.55-8.79c0-6.13,5.07-9.23,12.63-9.23c7.39,0,12.09,3.42,12.25,9.17h-7.77c0-2.44-1.84-3.8-4.7-3.8
			c-2.97,0-4.48,1.25-4.48,3.04c0,2.17,1.83,2.82,6.1,3.37c5.99,0.81,11.44,2.01,11.44,9.12c0,6.41-4.96,9.28-13.11,9.28
			C278.8,75.56,274.05,71.65,274.1,65.84z"/>
	</g>
</g>
</svg>
